<svg xmlns="http://www.w3.org/2000/svg" viewBox="0 0 48 48" width="48" height="48">
  <!-- Google Pay "G" icon mark -->
  <path d="M43.6 20H42V20H24V28H35.3C33.5 33.1 28.7 36 24 36C17.4 36 12 30.6 12 24C12 17.4 17.4 12 24 12C27.1 12 29.9 13.1 32.1 15L37.7 9.4C34.1 6 29.3 4 24 4C13 4 4 13 4 24C4 35 13 44 24 44C35 44 44 35 44 24C44 22.7 43.8 21.3 43.6 20Z" fill="#FFC107"/>
  <path d="M6.3 14.7L12.8 19.4C14.6 14.6 19 12 24 12C27.1 12 29.9 13.1 32.1 15L37.7 9.4C34.1 6 29.3 4 24 4C16.3 4 9.7 8.3 6.3 14.7Z" fill="#FF3D00"/>
  <path d="M24 44C29.2 44 33.9 42.1 37.4 38.8L31.3 33.6C29.2 35.1 26.7 36 24 36C19.4 36 14.6 33.2 12.8 28.2L6.2 33.1C9.5 39.7 16.2 44 24 44Z" fill="#4CAF50"/>
  <path d="M43.6 20H42V20H24V28H35.3C34.5 30.3 33 32.3 31.3 33.6L37.4 38.8C36.9 39.3 44 34 44 24C44 22.7 43.8 21.3 43.6 20Z" fill="#1976D2"/>
</svg>
